<svg width="30" height="12" viewBox="0 0 30 12" fill="none" xmlns="http://www.w3.org/2000/svg">
<path d="M4.21797 0C1.7549 0 0 1.61932 0 3.83641V3.85149C0 5.92477 1.52669 7.45328 3.70653 7.45328C5.2647 7.45328 6.25621 6.68908 6.67331 5.82642H6.83071C6.83071 5.90969 6.82287 5.99296 6.82287 6.07612C6.73627 8.16459 5.97287 9.85953 4.1708 9.85953C3.17135 9.85953 2.47102 9.36012 2.172 8.59592L2.14836 8.52029H0.149455L0.165247 8.60346C0.52723 10.2758 2.0854 11.4638 4.1708 11.4638C7.02744 11.4638 8.75086 9.2845 8.75086 5.60698V5.5919C8.75086 1.65713 6.64182 0 4.21797 0ZM4.21013 5.95504C2.91961 5.95504 1.98311 5.04703 1.98311 3.78341V3.76822C1.98311 2.54996 2.98246 1.58905 4.23377 1.58905C5.49291 1.58905 6.47657 2.56515 6.47657 3.81368V3.82877C6.47657 5.06222 5.49292 5.95504 4.21013 5.95504ZM11.7864 4.11639C12.5104 4.11639 13.0376 3.5867 13.0376 2.92075C13.0376 2.24736 12.5104 1.72522 11.7864 1.72522C11.0703 1.72522 10.5351 2.24736 10.5351 2.92075C10.5351 3.5867 11.0703 4.11639 11.7864 4.11639ZM11.7864 9.73091C12.5104 9.73091 13.0376 9.20887 13.0376 8.53538C13.0376 7.86188 12.5104 7.33984 11.7864 7.33984C11.0703 7.33984 10.5351 7.86188 10.5351 8.53538C10.5351 9.20887 11.0703 9.73091 11.7864 9.73091ZM20.3305 11.1913H22.2743V9.09533H23.801V7.48355H22.2743V0.272436H19.402C17.8595 2.52734 16.2463 5.03949 14.7747 7.49874V9.09533H20.3305V11.1913ZM16.6634 7.52901V7.41547C17.7651 5.56163 19.0793 3.54125 20.244 1.83111H20.362V7.52901H16.6634ZM27.9698 11.1913H30.0002V0.272436H27.9776L25.0109 2.27763V4.11639L27.836 2.19436H27.9698V11.1913Z" fill="black"/>
</svg>
