<svg width="28" height="28" viewBox="0 0 28 28" fill="none" xmlns="http://www.w3.org/2000/svg">
<g clip-path="url(#clip0_11_1160)">
<path d="M4.32457 22.2415C4.1259 21.5003 4.56575 20.7385 5.30702 20.5398L11.3113 18.931L12.0306 21.6152L6.02629 23.224C5.28502 23.4227 4.52324 22.9828 4.32457 22.2415Z" fill="#FF8500"/>
<path d="M5.59683 22.3509C5.11404 22.4801 4.62271 22.3385 4.28369 22.0193C4.29117 22.0933 4.30441 22.1676 4.32428 22.2415C4.52295 22.9828 5.28473 23.4226 6.026 23.224L12.0303 21.6152L11.8007 20.7577L5.59683 22.3509Z" fill="#FF6D00"/>
<path d="M27.5422 22.2415C27.7408 21.5003 27.3008 20.7385 26.5597 20.5398L20.5552 18.931L19.8359 21.6152L25.8404 23.224C26.5815 23.4227 27.3435 22.9828 27.5422 22.2415Z" fill="#FF8500"/>
<path d="M26.5593 20.5398L20.5548 18.931L20.3164 19.8208L26.0099 21.3465C26.7411 21.5424 27.1786 22.2862 26.9998 23.0178C27.2566 22.8369 27.454 22.5688 27.5418 22.2415C27.7404 21.5003 27.3004 20.7383 26.5593 20.5398Z" fill="#FF6D00"/>
<path d="M19.8209 15.1239H14.3455L9.30466 10.083C8.12524 8.90381 6.21332 8.90381 5.03412 10.083C4.53788 10.5793 4.25141 11.205 4.17279 11.8514L0.796698 12.3621C0.537573 12.4012 0.364966 12.651 0.419867 12.9073L1.36493 17.3203C1.47452 17.832 1.96457 18.1688 2.48133 18.0879L7.22782 16.5475L8.57642 17.8958C8.44055 18.3013 8.366 18.7345 8.366 19.1857V19.4333C8.366 21.6765 10.1844 23.4949 12.4276 23.4949H19.8211C22.0644 23.4949 23.8827 21.6765 23.8827 19.4333V19.1857C23.8827 16.9424 22.0641 15.1239 19.8209 15.1239Z" fill="#FFAA00"/>
<path d="M13.7107 15.1239H14.3454L9.30453 10.0831C8.18109 8.95982 6.39349 8.90727 5.20703 9.92412C6.27344 9.54045 7.51224 9.77522 8.36673 10.6297L12.26 14.5232C12.6447 14.9079 13.1666 15.1239 13.7107 15.1239Z" fill="#FF8500"/>
<path d="M23.427 18.7771C23.0912 18.7771 22.7533 18.7314 22.4209 18.6391C21.9411 18.5058 21.6599 18.0085 21.7935 17.5287C21.9268 17.0489 22.4239 16.7677 22.9039 16.9013C23.4014 17.0395 23.9229 16.9758 24.3723 16.7216C24.822 16.4676 25.1456 16.0538 25.2838 15.5563C25.3815 15.2051 25.3785 14.8362 25.2751 14.4892C25.1328 14.012 25.4045 13.5096 25.8818 13.3675C26.359 13.2252 26.8615 13.497 27.0037 13.9742C27.2039 14.6467 27.2101 15.3606 27.0217 16.0393C26.7544 17.001 26.1285 17.801 25.2597 18.2919C24.6913 18.6132 24.0628 18.7771 23.427 18.7771Z" fill="#FFAA00"/>
<path d="M27.0035 13.9741C26.8762 13.5464 26.4594 13.2847 26.0309 13.3371C26.1259 13.4371 26.2003 13.5597 26.2423 13.7009C26.4425 14.3731 26.4487 15.0873 26.2603 15.7658C25.993 16.7275 25.3671 17.5275 24.4983 18.0186C24.271 18.147 24.0341 18.2498 23.791 18.3275C23.8209 18.4662 23.844 18.6076 23.8594 18.7511C24.3456 18.6937 24.8205 18.5399 25.2595 18.2918C26.1285 17.8007 26.7542 17.0007 27.0214 16.039C27.2101 15.3605 27.2036 14.6464 27.0035 13.9741Z" fill="#FF8500"/>
<path d="M20.7088 8.6994L18.4183 10.0217C17.7334 10.4171 16.858 10.1826 16.4626 9.49771C16.2712 9.16617 16.3848 8.74234 16.7164 8.55093L19.6464 6.85925L20.7088 8.6994Z" fill="#FFC5B2"/>
<path d="M20.2699 7.93933L17.8451 9.33942C17.3789 9.60858 16.8244 9.58551 16.3931 9.32724C16.4084 9.38556 16.4309 9.44302 16.4625 9.49771C16.8577 10.1824 17.7333 10.4171 18.4182 10.0217L20.7087 8.6994L20.2699 7.93933Z" fill="#FFA6A0"/>
<path d="M12.6159 14.6706C12.482 14.6706 12.3506 14.6048 12.272 14.4843C12.1485 14.2946 12.2021 14.0406 12.3918 13.9172L27.3394 4.18452C27.5291 4.06104 27.7831 4.11445 27.9066 4.30436C28.0301 4.49405 27.9765 4.74805 27.7868 4.87153L12.8392 14.6042C12.7702 14.649 12.6926 14.6706 12.6159 14.6706Z" fill="#F63511"/>
<path d="M5.77859 12.9118C5.77859 13.2497 5.50473 13.5236 5.16678 13.5236C4.82904 13.5236 4.55518 13.2497 4.55518 12.9118C4.55518 12.574 4.82904 12.3002 5.16678 12.3002C5.50473 12.3002 5.77859 12.574 5.77859 12.9118Z" fill="#4694F2"/>
<path d="M12.3624 10.9159L10.3012 9.90614C9.52978 9.52824 8.63854 10.1272 8.69707 10.9841L8.80175 12.5173C8.86007 13.3743 9.82436 13.8466 10.5372 13.3675L12.4425 12.087C12.8753 11.7961 12.8311 11.1454 12.3624 10.9159Z" fill="#FF8500"/>
<path d="M12.363 10.9161L11.9492 10.7134C11.9951 10.9637 11.9026 11.2374 11.6614 11.3993L9.75464 12.6808C9.47543 12.8684 9.15778 12.9094 8.87109 12.8391C9.11334 13.4836 9.9187 13.7829 10.5363 13.3681L12.4429 12.0865C12.8757 11.7958 12.8312 11.1455 12.363 10.9161Z" fill="#FF6D00"/>
<path d="M20.5873 15.1971C21.596 15.9361 22.2514 17.1289 22.2514 18.4752V18.7228C22.2514 20.966 20.4331 22.7844 18.1898 22.7844H10.7963C10.5344 22.7844 10.2785 22.7588 10.0303 22.7113C10.7023 23.2037 11.5308 23.4949 12.4278 23.4949H19.821C22.0643 23.4949 23.8829 21.6765 23.8829 19.4333V19.1857C23.8829 17.2046 22.464 15.5556 20.5873 15.1971Z" fill="#FF8500"/>
<path d="M7.68408 17.0035L8.55759 17.877C8.66824 17.9877 8.8417 18.0046 8.9718 17.9176L13.867 14.6451L12.8031 13.5813L7.68408 17.0035Z" fill="#FF592A"/>
<path d="M12.9771 15.2399L13.8667 14.6451L12.8028 13.5813L11.9131 14.176L12.9771 15.2399Z" fill="#F63511"/>
<path d="M5.59543 25.8257C5.18549 25.1769 5.37903 24.3188 6.0278 23.9088L10.4838 21.1027C11.1325 20.6928 11.9909 20.8865 12.4006 21.5353C12.8105 22.1838 12.617 23.0422 11.9682 23.4521L7.51227 26.2581C6.8635 26.668 6.00516 26.4745 5.59543 25.8257Z" fill="#FFAA00"/>
<path d="M0.796911 12.3622C0.537573 12.4013 0.364965 12.651 0.419867 12.9074L0.608496 13.7877H1.5495C1.86289 13.7877 2.1171 13.5335 2.1171 13.2201V12.1625L0.796911 12.3622Z" fill="#8C6565"/>
<path d="M1.49203 12.2569V13.0088C1.49203 13.3222 1.23804 13.5764 0.924652 13.5764H0.562988L0.608276 13.7877H1.54929C1.86267 13.7877 2.11688 13.5337 2.11688 13.2201V12.1625L1.49203 12.2569Z" fill="#6D4949"/>
<path d="M26.3975 3.23431L21.8409 1.65308L20.5059 5.10202C20.4705 5.2037 20.3959 5.28659 20.2996 5.33444C19.4244 5.77087 18.8232 6.67471 18.8232 7.71911V10.6955C18.8232 11.2157 19.2447 11.6372 19.7649 11.6372H24.3249C24.8448 11.6372 25.2665 11.2157 25.2665 10.6955V6.43139C25.2665 6.20858 25.3039 5.98727 25.377 5.77664L26.3975 3.23431Z" fill="#FFC5B2"/>
<path d="M25.3205 2.8606L24.4547 5.01755C24.3816 5.22818 24.3442 5.44949 24.3442 5.67251V9.93643C24.3442 10.1838 24.2481 10.4083 24.0919 10.5764V10.2421C24.0919 10.0176 23.9189 9.82192 23.6946 9.8153C23.4624 9.80825 23.2721 9.99453 23.2721 10.225V10.7689C23.2721 10.8292 23.2231 10.8783 23.1627 10.8783H22.5182C22.4577 10.8783 22.4088 10.8292 22.4088 10.7689V10.2366C22.4088 10.012 22.2358 9.81637 22.0115 9.80975C21.7793 9.8027 21.5889 9.98876 21.5889 10.2195V10.7689C21.5889 10.8292 21.54 10.8783 21.4796 10.8783H20.8348C20.7744 10.8783 20.7255 10.8292 20.7255 10.7689V10.231C20.7255 10.0065 20.5524 9.81082 20.3281 9.80419C20.0959 9.79714 19.9056 9.98321 19.9056 10.2139V10.7689C19.9056 10.8292 19.8567 10.8783 19.7962 10.8783H18.8426C18.8422 10.8783 18.8419 10.8781 18.8413 10.8781C18.9265 11.3107 19.3074 11.6373 19.7652 11.6373H24.325C24.8452 11.6373 25.2667 11.2156 25.2667 10.6954V6.43152C25.2667 6.20871 25.304 5.98718 25.3771 5.77676L26.3976 3.23444L25.3205 2.8606Z" fill="#FFA6A0"/>
<path d="M26.221 23.9089L21.6762 21.0756C21.0279 20.6721 20.1751 20.8673 19.7673 21.5131C19.3554 22.1649 19.553 23.0273 20.2076 23.4347L24.7366 26.2581C25.3854 26.6681 26.2435 26.4743 26.6534 25.8257C27.0634 25.177 26.8696 24.3188 26.221 23.9089Z" fill="#FFAA00"/>
<path d="M12.4009 21.5351C12.2951 21.3678 12.1595 21.2311 12.0055 21.1268C12.1603 21.6998 11.9339 22.3302 11.4058 22.6636L6.94986 25.4698C6.46835 25.774 5.8717 25.7456 5.42822 25.4456C5.46368 25.5766 5.51901 25.7048 5.59549 25.8257C6.00522 26.4745 6.86355 26.668 7.51233 26.2581L11.9683 23.4519C12.6171 23.042 12.8108 22.1838 12.4009 21.5351Z" fill="#FF8500"/>
<path d="M26.2214 23.9088L21.6765 21.0756C21.0344 20.6759 20.1923 20.8639 19.7798 21.4947C20.115 21.4272 20.4753 21.4821 20.7883 21.6769L25.3331 24.51C25.9819 24.9199 26.1754 25.778 25.7655 26.4268C25.7617 26.433 25.7574 26.439 25.7533 26.4452C26.1124 26.3728 26.4427 26.1598 26.6537 25.8257C27.0637 25.1769 26.8699 24.3188 26.2214 23.9088Z" fill="#FF8500"/>
<path d="M25.8544 5.35827L27.1908 2.02875C27.2918 1.77731 27.1066 1.50366 26.8357 1.50366H21.8711C21.7133 1.50366 21.5714 1.60065 21.5144 1.74805L20.8067 3.57644C20.7285 3.77853 20.8336 4.00519 21.0382 4.07611L25.3741 5.57724C25.567 5.6441 25.7783 5.54776 25.8544 5.35827Z" fill="#4694F2"/>
<path d="M26.8357 1.50366H25.5384L24.3968 4.34741C24.3208 4.53689 24.1095 4.63324 23.9166 4.56659L20.8363 3.49997L20.8067 3.57644C20.7285 3.77853 20.8336 4.00519 21.0382 4.07611L25.3741 5.57724C25.567 5.6441 25.7783 5.54776 25.8544 5.35827L27.1908 2.02875C27.2918 1.77731 27.1066 1.50366 26.8357 1.50366Z" fill="#257EDF"/>
<path d="M27.7582 20.9823C27.5179 20.5659 27.1297 20.2681 26.6655 20.1438L24.2913 19.5076C24.2934 19.3698 24.2932 19.2323 24.2904 19.0947C24.6985 19.0071 25.0909 18.858 25.4613 18.6489C26.4256 18.1039 27.1199 17.2161 27.4166 16.1488C27.6257 15.3958 27.6187 14.6035 27.3965 13.8571C27.0962 13.1124 26.5523 12.8182 25.7647 12.9746C25.0717 13.181 24.6756 13.9128 24.8822 14.6063C24.9634 14.879 24.9657 15.1696 24.8888 15.4464C24.7799 15.8384 24.5248 16.1646 24.1706 16.3648C23.9442 16.4928 23.6936 16.5592 23.4387 16.5618C22.625 15.4432 21.307 14.7141 19.821 14.7141H19.4547C19.2282 14.7141 19.0447 14.8976 19.0447 15.1241C19.0447 15.3503 19.2282 15.534 19.4547 15.534H19.821C21.8346 15.534 23.4729 17.1721 23.4729 19.1857V19.4333C23.4729 20.1276 23.2819 20.7889 22.9188 21.3674L21.893 20.7278C21.0562 20.2068 19.9471 20.4608 19.4207 21.2941C19.1626 21.7024 19.08 22.1864 19.1878 22.6571C19.2225 22.8079 19.2754 22.9512 19.3446 23.0852H12.8334C13.1064 22.5396 13.0962 21.8684 12.7473 21.3161C12.4906 20.9098 12.0909 20.6279 11.622 20.5221C11.1535 20.4164 10.6711 20.4995 10.2655 20.7558L9.31996 21.3512C9.06041 20.9327 8.89977 20.4696 8.81709 19.9857C8.72737 19.4604 8.74574 18.8473 8.86708 18.378C8.86708 18.378 9.09737 18.3267 9.19948 18.2586L13.815 15.173L14.0558 15.414C14.1327 15.4907 14.2369 15.534 14.3457 15.534H17.503C17.7294 15.534 17.9129 15.3505 17.9129 15.1241C17.9129 14.8976 17.7294 14.7141 17.503 14.7141H14.5155L13.7879 13.9865L18.4391 10.958C18.5617 11.5781 19.1094 12.0473 19.7651 12.0473H24.3248C25.0702 12.0473 25.6764 11.4408 25.6764 10.6955L25.6899 6.23693L27.787 4.87146C27.9769 4.74798 28.0306 4.49399 27.9071 4.30429C27.7836 4.11438 27.5294 4.06097 27.3399 4.18445L26.5651 4.68881L27.5717 2.18152C27.6697 1.93692 27.6403 1.66049 27.4926 1.44238C27.345 1.22406 27.0996 1.09375 26.8362 1.09375H21.8716C21.5469 1.09375 21.2497 1.29733 21.1325 1.60025L20.4247 3.42843C20.3463 3.63095 20.3534 3.85077 20.4448 4.04794C20.4499 4.05905 20.4561 4.06952 20.4619 4.08041L20.1235 4.95413C20.1218 4.95862 20.1182 4.9631 20.1167 4.9678C19.2686 5.39056 18.6801 6.15896 18.4844 7.05661L16.5111 8.19586C16.2561 8.34326 16.0734 8.58102 15.9972 8.86556C15.9209 9.15032 15.96 9.44747 16.1074 9.70275C16.3533 10.1287 16.7504 10.4336 17.2255 10.5609C17.3073 10.5827 17.3896 10.5987 17.4722 10.6092L13.1953 13.3939L12.4064 12.6052L12.6717 12.4269C12.9979 12.2077 13.1767 11.8426 13.15 11.4506C13.1233 11.0584 12.8967 10.7211 12.5435 10.5483L10.4804 9.53762C10.0847 9.34365 9.64189 9.33019 9.24626 9.48956C7.89446 8.4569 5.96907 8.56841 4.74416 9.79333C4.27248 10.265 3.95589 10.8469 3.81789 11.4906L0.735525 11.9569C0.50054 11.9924 0.288413 12.1248 0.153189 12.3203C0.0181796 12.5157 -0.0307401 12.761 0.019034 12.9932L0.206595 13.8693C0.206809 13.8701 0.207022 13.871 0.207236 13.8716L0.964102 17.4064C1.11919 18.13 1.81283 18.6072 2.5447 18.4931C2.56606 18.4897 2.58721 18.4846 2.60793 18.478L7.11559 17.0148L8.11299 18.0123C8.00896 18.3949 7.95619 18.7883 7.95619 19.1859V19.4057L5.20067 20.144C4.24236 20.4008 3.67156 21.3894 3.92833 22.3477C4.05266 22.8119 4.35045 23.2001 4.7668 23.4404C5.03789 23.5968 5.33782 23.678 5.64244 23.6816C5.32564 23.9354 5.1054 24.2859 5.01482 24.6878C4.90886 25.1564 4.99218 25.6386 5.24895 26.0449H5.24874C5.50572 26.4512 5.9052 26.7332 6.3741 26.8389C6.50676 26.8688 6.6407 26.8838 6.77358 26.8838C7.10982 26.8838 7.43987 26.789 7.73061 26.6052L12.0445 23.8886L20.1654 23.8918L24.5177 26.6048C24.9544 26.8652 25.4068 26.9432 25.8749 26.8389C26.3438 26.7332 26.7433 26.4512 27 26.0449C27.2568 25.6386 27.3399 25.1564 27.2342 24.6878C27.1284 24.2189 26.8462 23.8192 26.4399 23.5624C26.4393 23.562 26.4386 23.5615 26.438 23.5611L23.6145 21.8011C23.8991 21.348 24.0973 20.8532 24.2029 20.3328L26.4534 20.9359C26.975 21.0756 27.2859 21.6139 27.1462 22.1356C27.1329 22.1845 27.116 22.2324 27.0962 22.2781C27.0049 22.4853 27.0992 22.7271 27.3064 22.8183C27.36 22.8418 27.416 22.8529 27.4711 22.8529C27.6287 22.8529 27.7791 22.7615 27.8464 22.6079C27.8834 22.5244 27.9141 22.4368 27.9378 22.3477C28.0624 21.8833 27.9985 21.3984 27.7582 20.9823ZM21.8902 1.91342H26.7956L25.484 5.18142L21.1995 3.69803L21.8902 1.91342ZM19.2331 7.71905C19.2331 6.85858 19.7119 6.08548 20.4824 5.70138C20.6742 5.60568 20.8189 5.44375 20.8904 5.24444L21.1585 4.55145L24.9266 5.85605C24.923 5.87078 24.9196 5.88574 24.9164 5.90048C24.9157 5.90326 24.9149 5.90603 24.9144 5.90881C24.8762 6.07992 24.8565 6.25488 24.8565 6.43133V10.6955C24.8565 10.9885 24.6181 11.2272 24.3248 11.2272H24.0918V10.2248C24.0918 9.99862 23.9083 9.8149 23.6818 9.8149C23.4554 9.8149 23.2719 9.99862 23.2719 10.2248V11.2272H22.4086V10.2193C22.4086 9.99285 22.2249 9.80935 21.9987 9.80935C21.7723 9.80935 21.5888 9.99285 21.5888 10.2193V11.2272H20.7253V10.2137C20.7253 9.9873 20.5418 9.8038 20.3153 9.8038C20.0889 9.8038 19.9054 9.9873 19.9054 10.2137V11.2272H19.7648C19.4715 11.2272 19.2329 10.9885 19.2329 10.6955V7.71905H19.2331ZM17.4378 9.76876C17.1742 9.69827 16.954 9.52908 16.8175 9.29281C16.7797 9.22723 16.7696 9.15096 16.7891 9.07791C16.8087 9.00463 16.8555 8.94375 16.9211 8.90573L18.4132 8.0444V9.55129L18.2131 9.66686C17.9768 9.80315 17.7012 9.83947 17.4378 9.76876ZM9.41631 10.3218C9.64638 10.1785 9.88094 10.1625 10.12 10.2738L12.1829 11.2844C12.3081 11.3457 12.3291 11.46 12.3323 11.5064C12.3352 11.5525 12.3301 11.6687 12.2146 11.7465C12.2146 11.7465 11.5378 12.2013 11.5361 12.2024L10.3078 13.0278C10.0963 13.1701 9.8333 13.188 9.60429 13.0759C9.37529 12.9637 9.22832 12.745 9.21101 12.4905L9.10612 10.955C9.08882 10.7008 9.20482 10.4641 9.41631 10.3218ZM0.939962 13.3777L0.820761 12.8214C0.817984 12.8088 0.820334 12.7971 0.82781 12.7864C0.835073 12.7757 0.845327 12.7695 0.858145 12.7676L1.70708 12.639V13.2203C1.70708 13.3072 1.63637 13.3777 1.54943 13.3777H0.939962ZM7.73595 16.4757L7.51763 16.2576C7.40868 16.1484 7.24782 16.1099 7.10127 16.1574L2.39003 17.6867C2.09801 17.7187 1.82778 17.5239 1.76583 17.2347L1.11535 14.1976H1.54943C2.0884 14.1976 2.52697 13.759 2.52697 13.2201V12.5149L4.23424 12.2566C4.41625 12.2291 4.55745 12.0836 4.57988 11.9009C4.65081 11.3171 4.90822 10.7888 5.32393 10.3729C6.20342 9.49362 7.5565 9.36843 8.57057 10.0164C8.36571 10.299 8.26338 10.6463 8.28816 11.011L8.39305 12.5463C8.43065 13.0964 8.74852 13.5695 9.2437 13.812C9.45924 13.9177 9.68867 13.9699 9.91682 13.9699C10.2129 13.9699 10.5069 13.8819 10.7651 13.7082L11.7132 13.0712L13.2239 14.5819L8.79979 17.5395L8.32704 17.0668L11.3816 15.0247C11.5698 14.8989 11.6205 14.6443 11.4946 14.4561C11.3688 14.2679 11.1142 14.2175 10.926 14.3431L7.73595 16.4757ZM5.17675 22.7303C4.95009 22.5994 4.78795 22.3883 4.72023 22.1354C4.65251 21.8827 4.68734 21.6186 4.81807 21.3922C4.94902 21.1655 5.16008 21.0034 5.41301 20.9357L8.02797 20.235C8.12709 20.7859 8.32875 21.31 8.62633 21.788L7.75581 22.3362L5.91994 22.8282C5.66722 22.8959 5.40319 22.8611 5.17675 22.7303ZM11.7506 23.1046C11.7339 23.1136 11.7181 23.1238 11.7029 23.1347L7.29332 25.9116C6.8366 26.2002 6.23055 26.0633 5.94194 25.6068C5.80223 25.3854 5.75695 25.1231 5.81462 24.8678C5.87209 24.6128 6.02568 24.3951 6.24636 24.2556L8.13884 23.0638C8.14012 23.0632 8.14162 23.0623 8.1429 23.0614L10.703 21.4492C10.8615 21.349 11.0411 21.2973 11.2242 21.2973C12.1631 21.2973 12.5786 22.5806 11.7506 23.1046ZM26.0031 24.256C26.2237 24.3957 26.3769 24.613 26.4344 24.8678C26.492 25.1231 26.4468 25.3854 26.3068 25.6068C26.1671 25.8279 25.9496 25.9815 25.6944 26.0391C25.4391 26.0966 25.1768 26.0515 24.9535 25.9103L20.4241 23.0869C20.2008 22.9478 20.0458 22.7303 19.987 22.474C19.9283 22.2178 19.9733 21.9542 20.1137 21.7321C20.2995 21.4379 20.6187 21.2764 20.9443 21.2764C21.1207 21.2764 21.2993 21.3241 21.4593 21.4236L22.7652 22.2377C22.7694 22.2411 22.7733 22.245 22.7776 22.2482C22.8032 22.2683 22.831 22.2834 22.8596 22.2965L26.0031 24.256ZM24.199 18.2742C24.1309 17.9465 24.026 17.6322 23.8901 17.3349C24.1277 17.2862 24.3582 17.2005 24.5739 17.0785C25.1189 16.7707 25.5113 16.2689 25.6788 15.666C25.7969 15.2403 25.7933 14.793 25.6679 14.3721C25.5903 14.1121 25.7388 13.8376 25.9988 13.7601C26.1248 13.7227 26.2577 13.7366 26.3733 13.799C26.4888 13.8616 26.5732 13.9654 26.6108 14.0912C26.789 14.6896 26.7945 15.3253 26.6266 15.9294C26.3886 16.7856 25.8315 17.4979 25.058 17.9351C24.785 18.0892 24.4972 18.2022 24.199 18.2742Z" fill="black"/>
<path d="M5.77859 12.9118C5.77859 13.2497 5.50473 13.5236 5.16678 13.5236C4.82904 13.5236 4.55518 13.2497 4.55518 12.9118C4.55518 12.574 4.82904 12.3002 5.16678 12.3002C5.50473 12.3002 5.77859 12.574 5.77859 12.9118Z" fill="black"/>
</g>
<defs>
<clipPath id="clip0_11_1160">
<rect width="28" height="28" fill="white"/>
</clipPath>
</defs>
</svg>
