<svg width="28" height="28" viewBox="0 0 28 28" fill="none" xmlns="http://www.w3.org/2000/svg">
<g clip-path="url(#clip0_11_1061)">
<mask id="mask0_11_1061" style="mask-type:luminance" maskUnits="userSpaceOnUse" x="0" y="0" width="28" height="28">
<path d="M0 1.90735e-06H28V28H0V1.90735e-06Z" fill="white"/>
</mask>
<g mask="url(#mask0_11_1061)">
<path d="M0.446289 27.5897V26.1738C0.446289 23.7474 1.79636 21.5227 3.94859 20.4025L6.02441 19.322C6.74563 18.9466 7.19795 18.2011 7.19795 17.3881V15.4556H9.91521V17.3881C9.91521 18.2011 10.3676 18.9466 11.0887 19.322L13.1646 20.4025C13.6332 20.6463 13.9062 20.809 14.2931 21.1482L15.5127 22.0025L11.8304 27.5897H0.446289Z" fill="#FCD1B3"/>
<path d="M14.2929 21.1484C13.9061 20.8091 13.633 20.6464 13.1645 20.4025L11.0886 19.322C10.3674 18.9467 9.91504 18.2012 9.91504 17.3882V15.4557H7.72754V17.3882C7.72754 18.2012 8.17991 18.9467 8.90108 19.322L10.977 20.4025C11.4455 20.6464 11.7186 20.8091 12.1054 21.1484L13.325 22.0026L9.6427 27.5898H11.8302L15.5125 22.0026L14.2929 21.1484Z" fill="#FCC29A"/>
<path d="M14.4463 21.2233C14.0594 20.884 13.6332 20.6464 13.1646 20.4025L11.6182 19.5976L8.69377 22.5221L5.6754 19.5037L3.94859 20.4025C1.79636 21.5228 0.446289 23.7476 0.446289 26.1739V27.5898H9.66113L15.5127 22.0026L14.4463 21.2233Z" fill="#1CCA96"/>
<path d="M14.1452 22.3854L11.6277 25.7118L15.5124 22.0026L14.446 21.2233C14.0592 20.884 13.6329 20.6464 13.1644 20.4025L11.618 19.5976L10.8691 20.3465C10.8691 20.3465 13.2835 21.5227 14.1452 22.3854Z" fill="#19B586"/>
<path d="M2.51025 10.2372V6.38046C2.51025 3.08313 5.18316 0.410112 8.48043 0.410112C11.7777 0.410112 14.4506 3.08313 14.4506 6.38046V10.181L2.51025 10.2372Z" fill="#B55C22"/>
<path d="M8.48043 0.410045C8.20207 0.410045 7.92831 0.429514 7.66012 0.466373C10.5691 0.866193 12.2631 3.36137 12.2631 6.38033V10.181L2.51025 10.2293V10.2371L14.4506 10.181V6.38033C14.4506 3.08301 11.7777 0.410045 8.48043 0.410045Z" fill="#A84C0F"/>
<path d="M4.70303 11.2419H2.80537C2.36136 11.2419 2.00146 10.882 2.00146 10.438C2.00146 9.99397 2.36136 9.63408 2.80537 9.63408H4.70303V11.2419Z" fill="#FCC29A"/>
<path d="M12.1899 9.63408H14.0876C14.5316 9.63408 14.8916 9.99403 14.8916 10.438V10.438C14.8916 10.882 14.5316 11.2419 14.0876 11.2419H12.1899V9.63408Z" fill="#FCC29A"/>
<path d="M3.60938 8.54404V13.6427C3.60938 14.663 4.2245 15.5826 5.16742 15.9721C7.26523 16.8386 9.62079 16.8393 11.7191 15.9738L11.7246 15.9716C12.6682 15.5824 13.2839 14.6625 13.2839 13.6417V6.34177C13.2839 5.5155 12.6141 4.84564 11.7878 4.84564H11.6259C11.2059 4.84564 10.8256 5.01588 10.5503 5.29117C9.56402 6.27741 8.43806 7.11303 7.1651 7.68299L6.87991 7.81068C5.84992 8.27186 4.73769 8.52124 3.60938 8.54404Z" fill="#FCD1B3"/>
<path d="M11.7878 4.84565H11.6259C11.2345 4.84565 10.8778 4.99352 10.6083 5.23634C10.9082 5.50988 11.0963 5.90385 11.0963 6.34179V13.6418C11.0963 14.6625 10.4807 15.5824 9.53709 15.9716L9.53157 15.9738C8.82741 16.2643 8.09422 16.4567 7.35156 16.5521C8.82036 16.7407 10.3263 16.5483 11.7191 15.9738L11.7246 15.9716C12.6682 15.5824 13.2838 14.6625 13.2838 13.6418V6.34179C13.2838 5.51552 12.614 4.84565 11.7878 4.84565Z" fill="#FCC29A"/>
<path d="M18.2888 27.5897L20.0155 23.2033C20.1439 22.8774 20.4586 22.663 20.809 22.663H24.5015C25.8109 22.663 26.9641 21.8007 27.3343 20.5447L27.5638 19.7659C27.6824 19.3635 27.3808 18.9601 26.9612 18.9601H25.2285C24.9589 18.9601 24.7052 18.8326 24.5443 18.6162L23.15 16.7409C22.6602 16.0821 21.8876 15.6937 21.0666 15.6937L18.1806 16.2968L9.53857 27.5897H18.2888Z" fill="#FCD1B3"/>
<path d="M26.9617 18.9601H25.6079C25.6079 18.9601 25.4954 19.3635 25.3768 19.7659L25.1473 20.5447C24.7771 21.8008 23.6239 22.6631 22.3145 22.6631H24.502C25.8114 22.6631 26.9646 21.8008 27.3348 20.5447L27.5643 19.7659C27.6829 19.3635 27.3812 18.9601 26.9617 18.9601Z" fill="#FCC29A"/>
<path d="M17.8283 23.2035L16.1016 27.5898H18.2891L20.0158 23.2035C20.1441 22.8775 20.4588 22.6632 20.8092 22.6632H18.6217C18.2713 22.6632 17.9566 22.8775 17.8283 23.2035Z" fill="#FCC29A"/>
<path d="M16.6253 16.5207L18.3401 19.7762C18.6361 20.3382 19.4599 20.2767 19.6692 19.677L21.0095 15.8365C21.194 15.3079 20.7366 14.778 20.1867 14.8833L17.1316 15.4682C16.6522 15.56 16.3978 16.0889 16.6253 16.5207Z" fill="#B55C22"/>
<path d="M27.5642 19.7659C27.6828 19.3636 27.3811 18.9602 26.9616 18.9602H26.0059C26.0059 19.6382 26.443 20.6499 27.2095 20.7651L27.26 20.7651C27.2875 20.6931 27.3126 20.6196 27.3347 20.5447L27.5642 19.7659Z" fill="#B55C22"/>
<path d="M16.6253 16.5207L18.3401 19.7762C18.6361 20.3382 19.4599 20.2767 19.6692 19.677L21.0095 15.8365C21.194 15.3079 20.7366 14.778 20.1867 14.8833L17.1316 15.4682C16.6522 15.56 16.3978 16.0889 16.6253 16.5207Z" stroke="black" stroke-width="0.742187" stroke-miterlimit="10" stroke-linecap="round" stroke-linejoin="round"/>
<path d="M18.7961 26.3016L18.2891 27.5897" stroke="black" stroke-width="0.742187" stroke-miterlimit="10" stroke-linecap="round" stroke-linejoin="round"/>
<path d="M21.0671 15.6937C21.8881 15.6937 22.6607 16.082 23.1505 16.7409L24.5448 18.6162C24.7057 18.8325 24.9594 18.9601 25.229 18.9601H26.9618C27.3813 18.9601 27.6829 19.3635 27.5643 19.7659L27.3348 20.5446C26.9646 21.8007 25.8115 22.663 24.502 22.663H20.8095C20.4591 22.663 20.1444 22.8773 20.0161 23.2034L19.5024 24.5082" stroke="black" stroke-width="0.742187" stroke-miterlimit="10" stroke-linecap="round" stroke-linejoin="round"/>
<path d="M26.0059 18.9602C26.0059 19.6383 26.443 20.6499 27.2095 20.7651" stroke="black" stroke-width="0.742187" stroke-miterlimit="10" stroke-linecap="round" stroke-linejoin="round"/>
<path d="M17.1858 17.6339L9.53857 27.5897" stroke="black" stroke-width="0.742187" stroke-miterlimit="10" stroke-linecap="round" stroke-linejoin="round"/>
<path d="M3.57324 8.54404V13.6427C3.57324 14.663 4.18831 15.5826 5.13123 15.9721C7.2291 16.8386 9.58466 16.8393 11.683 15.9738L11.6884 15.9716C12.6321 15.5824 13.2477 14.6625 13.2477 13.6417V6.34178C13.2477 5.5155 12.5779 4.84564 11.7516 4.84564H11.5897C11.1697 4.84564 10.7894 5.01588 10.5141 5.29117C9.52789 6.27741 8.40187 7.11303 7.12897 7.68299L6.84377 7.81068C5.81373 8.27186 4.70155 8.52124 3.57324 8.54404Z" stroke="black" stroke-width="0.742187" stroke-miterlimit="10" stroke-linecap="round" stroke-linejoin="round"/>
<path d="M3.5732 11.2419H2.76929C2.32529 11.2419 1.96533 10.882 1.96533 10.438C1.96533 9.99397 2.32529 9.63408 2.76929 9.63408H3.5732V11.2419Z" stroke="black" stroke-width="0.742187" stroke-miterlimit="10" stroke-linecap="round" stroke-linejoin="round"/>
<path d="M13.2476 9.63408H14.0515C14.4955 9.63408 14.8554 9.99403 14.8554 10.438V10.438C14.8554 10.882 14.4955 11.2419 14.0515 11.2419H13.2476V9.63408Z" stroke="black" stroke-width="0.742187" stroke-miterlimit="10" stroke-linecap="round" stroke-linejoin="round"/>
<path d="M4.64648 1.77376C5.67855 0.92189 7.00171 0.410125 8.44448 0.410125C11.7417 0.410125 14.4147 3.08309 14.4147 6.38041V9.63416" stroke="black" stroke-width="0.742187" stroke-miterlimit="10" stroke-linecap="round" stroke-linejoin="round"/>
<path d="M2.47412 9.69031V6.38046C2.47412 5.167 2.8361 4.03808 3.458 3.09587" stroke="black" stroke-width="0.742187" stroke-miterlimit="10" stroke-linecap="round" stroke-linejoin="round"/>
<path d="M7.16182 16.5493V17.3881C7.16182 18.2011 6.70945 18.9466 5.98828 19.322L3.9124 20.4025C1.76023 21.5227 0.410156 23.7474 0.410156 26.1738V27.5897" stroke="black" stroke-width="0.742187" stroke-miterlimit="10" stroke-linecap="round" stroke-linejoin="round"/>
<path d="M9.87891 16.5494V17.3882C9.87891 18.2012 10.3313 18.9467 11.0524 19.322L13.1283 20.4025C13.5969 20.6464 13.8699 20.8091 14.2568 21.1483" stroke="black" stroke-width="0.742187" stroke-miterlimit="10" stroke-linecap="round" stroke-linejoin="round"/>
<path d="M5.63965 19.5037L8.65802 22.5221L11.5773 19.6028" stroke="black" stroke-width="0.742187" stroke-miterlimit="10" stroke-linecap="round" stroke-linejoin="round"/>
<path d="M5.48486 24.8346V27.5897" stroke="black" stroke-width="0.742187" stroke-miterlimit="10" stroke-linecap="round" stroke-linejoin="round"/>
<path d="M6.86258 26.2122H4.10742" stroke="black" stroke-width="0.742187" stroke-miterlimit="10" stroke-linecap="round" stroke-linejoin="round"/>
</g>
</g>
<defs>
<clipPath id="clip0_11_1061">
<rect width="28" height="28" fill="white"/>
</clipPath>
</defs>
</svg>
