<svg width="18" height="11" viewBox="0 0 18 11" fill="none" xmlns="http://www.w3.org/2000/svg">
<path fill-rule="evenodd" clip-rule="evenodd" d="M16.9415 0H15.8826C15.2982 0 14.8238 0.455811 14.8238 1.01812V9.84184C14.8238 10.4041 15.2982 10.86 15.8826 10.86H16.9415C17.526 10.86 18.0003 10.4041 18.0003 9.84184V1.01812C18.0003 0.455811 17.526 0 16.9415 0ZM10.941 2.37557H11.9999C12.5854 2.37557 13.0587 2.83149 13.0587 3.39369V9.84184C13.0587 10.4041 12.5854 10.86 11.9999 10.86H10.941C10.3565 10.86 9.88218 10.4041 9.88218 9.84184V3.39369C9.88218 2.83149 10.3565 2.37557 10.941 2.37557ZM7.05933 4.75125H6.00048C5.41494 4.75125 4.94164 5.20706 4.94164 5.76937V9.84184C4.94164 10.4041 5.41494 10.86 6.00048 10.86H7.05933C7.64381 10.86 8.11817 10.4041 8.11817 9.84184V5.76937C8.11817 5.20706 7.64381 4.75125 7.05933 4.75125ZM2.11768 6.78748H1.05884C0.474361 6.78748 0 7.2433 0 7.8056V9.84184C0 10.4041 0.474361 10.86 1.05884 10.86H2.11768C2.70217 10.86 3.17653 10.4041 3.17653 9.84184V7.8056C3.17653 7.2433 2.70217 6.78748 2.11768 6.78748Z" fill="black"/>
</svg>
