<svg width="22" height="22" viewBox="0 0 22 22" fill="none" xmlns="http://www.w3.org/2000/svg">
<path d="M20.1671 5.95757H14.6672" stroke="#141415" stroke-width="1.64189" stroke-miterlimit="10" stroke-linecap="round" stroke-linejoin="round"/>
<path d="M5.49984 5.95757H1.83321" stroke="#141415" stroke-width="1.64189" stroke-miterlimit="10" stroke-linecap="round" stroke-linejoin="round"/>
<path d="M9.16672 9.16654C10.9386 9.16654 12.375 7.73013 12.375 5.95824C12.375 4.18634 10.9386 2.74994 9.16672 2.74994C7.39483 2.74994 5.95843 4.18634 5.95843 5.95824C5.95843 7.73013 7.39483 9.16654 9.16672 9.16654Z" stroke="#141415" stroke-width="1.64189" stroke-miterlimit="10" stroke-linecap="round" stroke-linejoin="round"/>
<path d="M20.1665 16.0422H16.4999" stroke="#141415" stroke-width="1.64189" stroke-miterlimit="10" stroke-linecap="round" stroke-linejoin="round"/>
<path d="M7.33315 16.0422H1.83321" stroke="#141415" stroke-width="1.64189" stroke-miterlimit="10" stroke-linecap="round" stroke-linejoin="round"/>
<path d="M12.8336 19.2491C14.6055 19.2491 16.0419 17.8127 16.0419 16.0408C16.0419 14.2689 14.6055 12.8325 12.8336 12.8325C11.0617 12.8325 9.62534 14.2689 9.62534 16.0408C9.62534 17.8127 11.0617 19.2491 12.8336 19.2491Z" stroke="#141415" stroke-width="1.64189" stroke-miterlimit="10" stroke-linecap="round" stroke-linejoin="round"/>
</svg>
