<svg width="20" height="20" viewBox="0 0 20 20" fill="none" xmlns="http://www.w3.org/2000/svg">
<path d="M9.5 9V14H10.5V9H9.5Z" fill="#FFE8E8"/>
<path d="M10 5C9.44771 5 9 5.44772 9 6C9 6.55228 9.44771 7 10 7C10.5523 7 11 6.55228 11 6C11 5.44772 10.5523 5 10 5Z" fill="#FFE8E8"/>
<path fill-rule="evenodd" clip-rule="evenodd" d="M19 10C19 14.9706 14.9706 19 10 19C5.02944 19 1 14.9706 1 10C1 5.02944 5.02944 1 10 1C14.9706 1 19 5.02944 19 10ZM18 10C18 14.4183 14.4183 18 10 18C5.58172 18 2 14.4183 2 10C2 5.58172 5.58172 2 10 2C14.4183 2 18 5.58172 18 10Z" fill="#FFE8E8"/>
</svg>
