<svg width="16" height="11" viewBox="0 0 16 11" fill="none" xmlns="http://www.w3.org/2000/svg">
<path fill-rule="evenodd" clip-rule="evenodd" d="M7.96741 2.28447C10.2793 2.28457 12.5025 3.13865 14.178 4.67024C14.3042 4.78851 14.5056 4.78701 14.6297 4.66693L15.8357 3.49657C15.8993 3.43568 15.9338 3.35322 15.9338 3.26735C15.9328 3.18148 15.8973 3.09932 15.8336 3.03914C11.4363 -1.01305 4.49854 -1.01305 0.101181 3.03914C0.0375417 3.09932 0.00104326 3.18138 0 3.26725C0 3.35312 0.0344216 3.43568 0.0980608 3.49657L1.30408 4.66693C1.42823 4.78721 1.62959 4.78871 1.75583 4.67024C3.43131 3.13855 5.65553 2.28447 7.96741 2.28447ZM7.96741 6.09209C9.23706 6.09199 10.4619 6.54591 11.4039 7.36568C11.5312 7.48204 11.7315 7.47953 11.8557 7.36006L13.0606 6.18969C13.1243 6.1283 13.1587 6.04504 13.1587 5.95847C13.1577 5.872 13.1201 5.78934 13.0554 5.72925C10.1885 3.16483 5.74838 3.16483 2.88149 5.72925C2.81681 5.78934 2.77926 5.872 2.77926 5.95857C2.77822 6.04514 2.81368 6.1284 2.87732 6.18969L4.08124 7.36006C4.20539 7.47953 4.40571 7.48204 4.53299 7.36568C5.47401 6.54651 6.69775 6.09259 7.96741 6.09209ZM10.3805 8.65391C10.3826 8.74068 10.3471 8.82434 10.2824 8.88513L8.19903 10.9072C8.13747 10.9665 8.054 10.9999 7.96741 10.9999C7.88082 10.9999 7.79737 10.9665 7.73582 10.9072L5.65241 8.88513C5.58773 8.82424 5.55226 8.74058 5.55435 8.65381C5.55643 8.56703 5.59503 8.48488 5.6618 8.42669C6.99301 7.34441 8.94181 7.34441 10.273 8.42669C10.3398 8.48488 10.3784 8.56713 10.3805 8.65391Z" fill="black"/>
</svg>
