<svg width="22" height="22" viewBox="0 0 22 22" fill="none" xmlns="http://www.w3.org/2000/svg">
<path d="M12.5831 3.1565L14.2008 6.40985C14.4188 6.85979 15.004 7.28664 15.4973 7.37894L18.423 7.86348C20.2932 8.17497 20.7292 9.5363 19.3868 10.8976L17.1036 13.1934C16.725 13.5742 16.507 14.324 16.6332 14.8663L17.2871 17.7043C17.8034 19.9424 16.6102 20.8192 14.6483 19.6425L11.9061 18.0043C11.4128 17.7043 10.5867 17.7043 10.0934 18.0043L7.35123 19.6425C5.38929 20.8077 4.19608 19.9424 4.71238 17.7043L5.36637 14.8663C5.49257 14.3356 5.27458 13.5857 4.89596 13.1934L2.61277 10.8976C1.27039 9.54784 1.70637 8.18651 3.57653 7.86348L6.50222 7.37894C6.99557 7.29818 7.58072 6.85979 7.79871 6.40985L9.41645 3.1565C10.277 1.39138 11.6997 1.39138 12.5831 3.1565Z" fill="#FFBC11"/>
</svg>
