<svg width="41" height="36" viewBox="0 0 41 36" fill="none" xmlns="http://www.w3.org/2000/svg">
<path d="M37.3382 3.86157L37.3376 3.86098C35.1921 1.61035 32.9111 0.588039 30.7214 0.388024C28.5262 0.187504 26.3911 0.810797 24.5423 1.90622C22.6925 3.00225 21.1438 4.56287 20.1275 6.21017C19.1068 7.86442 18.647 9.5646 18.9012 10.9499L18.2841 11.2344C17.3147 10.0421 15.6875 9.19309 13.7627 8.79658C11.8428 8.40108 9.66149 8.46385 7.62439 9.05968C5.58845 9.65517 3.71028 10.7786 2.37475 12.4927C1.04226 14.2029 0.231462 16.5244 0.364741 19.5539L37.3382 3.86157ZM37.3382 3.86157C39.6104 6.23416 40.3097 9.25052 40.0418 12.5172C39.7732 15.7917 38.5332 19.2919 36.9569 22.5759C35.3824 25.8562 33.4832 28.8992 31.9149 31.256C31.2732 32.2203 30.6881 33.068 30.2029 33.7709C30.0951 33.927 29.9923 34.076 29.8949 34.2175C29.6275 34.606 29.3995 34.9402 29.2232 35.2106C29.1386 35.3403 29.0629 35.4598 28.9992 35.5665M37.3382 3.86157L28.9992 35.5665M28.9992 35.5665C28.8648 35.5254 28.7112 35.4859 28.5442 35.447C28.2177 35.371 27.8116 35.2912 27.3413 35.2049C26.9064 35.125 26.4125 35.0389 25.8709 34.9444L25.7354 34.9207C25.1399 34.8168 24.4883 34.7027 23.7918 34.5754C21.0049 34.066 17.5085 33.3465 14.0686 32.2324C10.625 31.1171 7.26212 29.6139 4.72785 27.5491C2.20049 25.49 0.51301 22.8875 0.364748 19.5541L28.9992 35.5665ZM27.5907 32.9611L27.8988 33.103L28.0509 32.7998C28.0898 32.7223 28.18 32.5804 28.3296 32.3646C28.4752 32.1545 28.6652 31.8912 28.8928 31.578C28.9609 31.4844 29.0322 31.3865 29.1065 31.2844C29.5279 30.7057 30.0458 29.9944 30.6157 29.1819C31.9565 27.2704 33.5917 24.7893 34.9619 22.1152C36.33 19.4451 37.4461 16.5593 37.728 13.8416C38.0107 11.1156 37.4551 8.52888 35.4435 6.52217C33.6204 4.68189 31.6211 3.8427 29.6561 3.71461C27.6974 3.58693 25.7995 4.16715 24.1689 5.11913C22.539 6.07076 21.1603 7.40272 20.2359 8.80541C19.5267 9.88156 19.0676 11.0271 18.9937 12.0906C18.0952 11.3676 16.8885 10.8837 15.5671 10.6463C13.8851 10.3442 11.9777 10.4333 10.1878 10.9673C8.39717 11.5016 6.70886 12.4862 5.48603 13.9883C4.25969 15.4948 3.51843 17.5017 3.59488 20.0438C3.66249 22.93 5.13651 25.1303 7.28939 26.806C9.43443 28.4755 12.2713 29.6408 15.1286 30.479C17.9901 31.3184 20.8986 31.8371 23.2023 32.2001C23.7816 32.2914 24.3161 32.3719 24.803 32.4451C25.2932 32.5189 25.7352 32.5855 26.1259 32.6484C26.5112 32.7105 26.834 32.7673 27.0879 32.8213C27.35 32.8771 27.5113 32.9245 27.5907 32.9611Z" stroke="white" stroke-opacity="0.45" stroke-width="0.696761"/>
<mask id="path-2-inside-1_1_22" fill="white">
<path d="M31.717 11.1415C26.5229 5.7264 19.8146 12.0028 20.4747 15.5326C17.9891 12.5491 9.14503 13.2553 9.5065 20.5693C9.87403 28.7951 25.4084 29.6687 26.7508 30.318C27.2984 29.095 37.3241 16.9909 31.717 11.1415Z"/>
</mask>
<path d="M20.4747 15.5326L19.9358 15.9815L21.6591 18.05L21.1642 15.4036L20.4747 15.5326ZM9.5065 20.5693L10.2072 20.538L10.2071 20.5347L9.5065 20.5693ZM26.7508 30.318L26.4454 30.9495L27.0957 31.2641L27.391 30.6047L26.7508 30.318ZM32.2232 10.656C30.8191 9.19212 29.2723 8.48217 27.7374 8.34799C26.2137 8.21479 24.7637 8.65386 23.5422 9.37974C22.3227 10.1044 21.302 11.1313 20.6255 12.2275C19.9579 13.3094 19.5762 14.5435 19.7853 15.6615L21.1642 15.4036C21.0432 14.7567 21.2525 13.8827 21.8193 12.9642C22.3773 12.0601 23.2345 11.1944 24.2589 10.5857C25.2812 9.97813 26.4408 9.64282 27.6152 9.74549C28.7783 9.84716 30.0178 10.3833 31.2108 11.627L32.2232 10.656ZM21.0136 15.0836C20.2584 14.1771 19.0738 13.6044 17.8016 13.3451C16.5194 13.0838 15.0771 13.1246 13.7277 13.5157C12.3762 13.9074 11.0898 14.6598 10.1651 15.8459C9.23411 17.04 8.70816 18.6253 8.80595 20.6039L10.2071 20.5347C10.1241 18.8563 10.5681 17.6105 11.2714 16.7084C11.981 15.7982 12.9932 15.1892 14.1182 14.863C15.2454 14.5363 16.4575 14.5028 17.5214 14.7197C18.5952 14.9385 19.4483 15.3963 19.9358 15.9815L21.0136 15.0836ZM8.80579 20.6006C8.90883 22.9069 10.0838 24.6755 11.7235 26.0147C13.3493 27.3426 15.4612 28.2762 17.5468 28.9521C19.6398 29.6304 21.7548 30.0641 23.4156 30.3676C24.2941 30.5282 24.9211 30.6309 25.5123 30.7399C25.7865 30.7904 26.0089 30.8347 26.1795 30.8747C26.2645 30.8947 26.3305 30.9122 26.3799 30.9273C26.4328 30.9434 26.4499 30.9517 26.4454 30.9495L27.0562 29.6866C26.8957 29.609 26.6885 29.5533 26.5004 29.5091C26.2957 29.461 26.0464 29.4119 25.7666 29.3603C25.2499 29.2651 24.4402 29.1288 23.6678 28.9876C22.0269 28.6877 19.9836 28.2671 17.9793 27.6176C15.9676 26.9657 14.0431 26.098 12.6109 24.9283C11.1926 23.7699 10.2879 22.3446 10.2072 20.538L8.80579 20.6006ZM27.391 30.6047C27.3907 30.6054 27.3934 30.5993 27.4012 30.5848C27.4086 30.5709 27.419 30.5525 27.4329 30.5291C27.4609 30.4817 27.4984 30.4217 27.5466 30.3475C27.6433 30.1986 27.7717 30.0098 27.9295 29.78C28.2426 29.3243 28.6619 28.7215 29.1304 28.0166C30.0677 26.6064 31.2172 24.7652 32.1744 22.7678C33.1282 20.7777 33.9128 18.589 34.0827 16.4901C34.2538 14.3757 33.8018 12.3028 32.2234 10.6561L31.2107 11.6269C32.4358 12.9049 32.8332 14.5385 32.6844 16.377C32.5343 18.231 31.8296 20.2415 30.9094 22.1615C29.9927 24.0742 28.8835 25.8539 27.9621 27.24C27.5014 27.9333 27.0914 28.5225 26.7732 28.9857C26.6155 29.2153 26.4778 29.4176 26.3702 29.5833C26.2706 29.7367 26.1702 29.8984 26.1106 30.0314L27.391 30.6047Z" fill="white" fill-opacity="0.45" mask="url(#path-2-inside-1_1_22)"/>
</svg>
