<svg width="25" height="25" viewBox="0 0 25 25" fill="none" xmlns="http://www.w3.org/2000/svg">
<g clip-path="url(#clip0_2_3825)">
<path d="M24.3243 9.79821V8.37295C21.2694 8.37295 19.2109 9.33642 18.144 10.0109C17.8925 9.59416 17.6059 9.20511 17.2889 8.84875C18.2722 7.88148 20.1539 5.60687 20.5626 2.05814L19.1467 1.89504C18.948 3.62078 18.3327 5.21089 17.318 6.62127C16.9135 7.18353 16.5222 7.60394 16.2422 7.87616C15.9075 7.62075 15.5522 7.3959 15.1795 7.2052C15.3044 6.8591 15.369 6.492 15.369 6.1163C15.369 5.61452 15.2529 5.13944 15.0465 4.71609C15.1951 4.57974 15.3512 4.41128 15.4937 4.2078C15.9184 3.60178 16.3025 2.57565 15.7215 1.12863L14.3988 1.65978C14.6669 2.32718 14.6514 2.89618 14.3529 3.35103C14.2893 3.4479 14.2186 3.53118 14.149 3.60197C13.6022 3.16903 12.9121 2.90953 12.1622 2.90953C11.4122 2.90953 10.7221 3.16903 10.1754 3.60197C10.1057 3.53123 10.035 3.4479 9.97144 3.35103C9.6729 2.89618 9.65746 2.32718 9.92546 1.65978L8.60282 1.12863C8.02179 2.57565 8.40595 3.60178 8.83058 4.2078C8.97315 4.41128 9.12917 4.57979 9.27777 4.71609C9.07145 5.13944 8.95533 5.61452 8.95533 6.1163C8.95533 6.492 9.0199 6.8591 9.14485 7.2052C8.77219 7.39594 8.41687 7.6208 8.08208 7.87616C7.80207 7.60394 7.41079 7.18358 7.0063 6.62127C5.99162 5.21089 5.37629 3.62078 5.17756 1.89504L3.76167 2.05814C4.17043 5.60687 6.05214 7.88148 7.03538 8.84875C6.7184 9.20506 6.43188 9.59416 6.18032 10.0109C5.11342 9.33638 3.05489 8.37295 0 8.37295V9.79821C2.8726 9.79821 4.70105 10.7293 5.5505 11.2989C5.36969 11.7693 5.2292 12.2628 5.13395 12.7741C4.00619 12.9392 1.48967 13.4829 0.000237542 15.1532L1.064 16.1018C2.11379 14.9245 3.93555 14.4357 4.98976 14.2438C4.98924 14.2822 4.98843 14.3205 4.98843 14.359C4.98843 15.0826 5.07798 15.7835 5.24479 16.4497C4.88695 16.6838 4.4045 17.0638 3.92239 17.6419C3.11066 18.6151 2.14306 20.3687 2.14306 23.1956H3.56831C3.56831 21.305 4.03855 19.7644 4.96596 18.6168C5.23357 18.2856 5.50309 18.0365 5.73312 17.8552C6.90748 20.4545 9.34794 22.2455 12.1622 22.2455C14.9764 22.2455 17.4168 20.4545 18.5912 17.8552C18.8212 18.0365 19.0907 18.2856 19.3583 18.6168C20.2858 19.7644 20.756 21.305 20.756 23.1956H22.1812C22.1812 20.3687 21.2137 18.6151 20.402 17.6419C19.9199 17.0638 19.4374 16.6838 19.0796 16.4497C19.2464 15.7836 19.336 15.0826 19.336 14.359C19.336 14.32 19.3351 14.2812 19.3346 14.2423C20.387 14.4324 22.2059 14.9191 23.2604 16.1018L24.3242 15.1532C22.8347 13.4829 20.3182 12.9392 19.1905 12.7741C19.0952 12.2627 18.9547 11.7693 18.7739 11.2989C19.6233 10.7293 21.4517 9.79821 24.3243 9.79821ZM15.7253 10.0357C15.7253 12.0005 14.1269 13.5989 12.1622 13.5989C10.1974 13.5989 8.59902 12.0005 8.59902 10.0357C8.59902 9.75521 8.63204 9.47771 8.69613 9.20796C9.66045 8.38621 10.8615 7.89787 12.1622 7.89787C13.4628 7.89787 14.6638 8.38621 15.6282 9.20796C15.6923 9.47767 15.7253 9.75521 15.7253 10.0357ZM10.3806 6.1163C10.3806 5.13393 11.1798 4.33474 12.1622 4.33474C13.1445 4.33474 13.9437 5.13393 13.9437 6.1163C13.9437 6.31508 13.9103 6.50901 13.8474 6.69296C13.3067 6.5493 12.7425 6.47262 12.1622 6.47262C11.5818 6.47262 11.0176 6.5493 10.4769 6.69296C10.414 6.50901 10.3806 6.31503 10.3806 6.1163ZM12.1622 20.8202C8.99239 20.8202 6.41363 17.9217 6.41363 14.359C6.41363 13.1215 6.725 11.9644 7.26394 10.9808C7.70686 13.281 9.73457 15.0241 12.1622 15.0241C14.5897 15.0241 16.6174 13.281 17.0604 10.9808C17.5993 11.9644 17.9107 13.1215 17.9107 14.359C17.9107 17.9217 15.3319 20.8202 12.1622 20.8202Z" fill="black"/>
</g>
<defs>
<clipPath id="clip0_2_3825">
<rect width="24" height="24" fill="white" transform="scale(1.01351)"/>
</clipPath>
</defs>
</svg>
