<svg width="20" height="20" viewBox="0 0 20 20" fill="none" xmlns="http://www.w3.org/2000/svg">
<path fill-rule="evenodd" clip-rule="evenodd" d="M13.2082 2.08387C13.734 2.08387 14.259 2.15804 14.7582 2.32554C17.834 3.32554 18.9424 6.70054 18.0165 9.65054C17.4915 11.158 16.6332 12.5339 15.509 13.658C13.8999 15.2164 12.134 16.5997 10.2332 17.7914L10.0249 17.9172L9.80818 17.783C7.90068 16.5997 6.12485 15.2164 4.50068 13.6497C3.38402 12.5255 2.52485 11.158 1.99152 9.65054C1.04985 6.70054 2.15818 3.32554 5.26735 2.30804C5.50902 2.22471 5.75818 2.16637 6.00818 2.13387H6.10818C6.34235 2.09971 6.57485 2.08387 6.80818 2.08387H6.89985C7.42485 2.09971 7.93318 2.19137 8.42568 2.35887H8.47485C8.50818 2.37471 8.53318 2.39221 8.54985 2.40804C8.73402 2.46721 8.90818 2.53387 9.07485 2.62554L9.39152 2.76721C9.46804 2.80802 9.55392 2.87037 9.62815 2.92426C9.67518 2.95841 9.71753 2.98916 9.74985 3.00887C9.76345 3.0169 9.77728 3.02497 9.79121 3.0331C9.86266 3.07481 9.93709 3.11826 9.99985 3.16637C10.9257 2.45887 12.0499 2.07554 13.2082 2.08387ZM15.4249 8.08387C15.7665 8.07471 16.0582 7.80054 16.0832 7.44971V7.35054C16.1082 6.18304 15.4007 5.12554 14.3249 4.71721C13.9832 4.59971 13.6082 4.78387 13.4832 5.13387C13.3665 5.48387 13.5499 5.86721 13.8999 5.99137C14.434 6.19137 14.7915 6.71721 14.7915 7.29971V7.32554C14.7757 7.51637 14.8332 7.70054 14.9499 7.84221C15.0665 7.98387 15.2415 8.06637 15.4249 8.08387Z" fill="#D93A3A"/>
</svg>
