<svg width="28" height="28" viewBox="0 0 28 28" fill="none" xmlns="http://www.w3.org/2000/svg">
<g clip-path="url(#clip0_11_856)">
<mask id="mask0_11_856" style="mask-type:luminance" maskUnits="userSpaceOnUse" x="0" y="0" width="28" height="28">
<path d="M0 1.90735e-06H28V28H0V1.90735e-06Z" fill="white"/>
</mask>
<g mask="url(#mask0_11_856)">
<path d="M0.446289 27.5898V26.1739C0.446289 23.7476 1.79636 21.5228 3.94859 20.4026L6.02441 19.3221C6.74563 18.9467 7.19795 18.2013 7.19795 17.3882V15.4557H9.91521V17.3882C9.91521 18.2013 10.3676 18.9467 11.0887 19.3221L13.1646 20.4026C13.6332 20.6464 13.9062 20.8091 14.2931 21.1484L15.5127 22.0026L11.8304 27.5898H0.446289Z" fill="#FCD1B3"/>
<path d="M14.2929 21.1484C13.9061 20.8091 13.633 20.6465 13.1645 20.4026L11.0886 19.3221C10.3674 18.9468 9.91504 18.2013 9.91504 17.3883V15.4557H7.72754V17.3883C7.72754 18.2013 8.17991 18.9468 8.90108 19.3221L10.977 20.4026C11.4455 20.6465 11.7186 20.8091 12.1054 21.1484L13.325 22.0026L9.6427 27.5899H11.8302L15.5125 22.0026L14.2929 21.1484Z" fill="#FCC29A"/>
<path d="M14.4463 21.2234C14.0594 20.8841 13.6332 20.6465 13.1646 20.4026L11.6182 19.5977L8.69377 22.5222L5.6754 19.5038L3.94859 20.4026C1.79636 21.5229 0.446289 23.7476 0.446289 26.1739V27.5899H9.66113L15.5127 22.0026L14.4463 21.2234Z" fill="#1CCA96"/>
<path d="M14.1452 22.3854L11.6277 25.7119L15.5124 22.0026L14.446 21.2233C14.0592 20.884 13.6329 20.6465 13.1644 20.4026L11.618 19.5976L10.8691 20.3465C10.8691 20.3465 13.2835 21.5228 14.1452 22.3854Z" fill="#19B586"/>
<path d="M2.51025 10.2372V6.38052C2.51025 3.08319 5.18316 0.410173 8.48043 0.410173C11.7777 0.410173 14.4506 3.08319 14.4506 6.38052V10.1811L2.51025 10.2372Z" fill="#B55C22"/>
<path d="M8.48043 0.410167C8.20207 0.410167 7.92831 0.429636 7.66012 0.466496C10.5691 0.866315 12.2631 3.36149 12.2631 6.38046V10.1811L2.51025 10.2295V10.2372L14.4506 10.1811V6.38046C14.4506 3.08313 11.7777 0.410167 8.48043 0.410167Z" fill="#A84C0F"/>
<path d="M4.70303 11.2421H2.80537C2.36136 11.2421 2.00146 10.8821 2.00146 10.4381C2.00146 9.9941 2.36136 9.6342 2.80537 9.6342H4.70303V11.2421Z" fill="#FCC29A"/>
<path d="M12.1899 9.6342H14.0876C14.5316 9.6342 14.8916 9.99415 14.8916 10.4381V10.4382C14.8916 10.8822 14.5316 11.2421 14.0876 11.2421H12.1899V9.6342Z" fill="#FCC29A"/>
<path d="M3.60938 8.5441V13.6428C3.60938 14.663 4.2245 15.5827 5.16742 15.9721C7.26523 16.8387 9.62079 16.8393 11.7191 15.9739L11.7246 15.9716C12.6682 15.5825 13.2839 14.6625 13.2839 13.6418V6.34184C13.2839 5.51556 12.6141 4.8457 11.7878 4.8457H11.6259C11.2059 4.8457 10.8256 5.01594 10.5503 5.29123C9.56402 6.27747 8.43806 7.11309 7.1651 7.68305L6.87991 7.81074C5.84992 8.27192 4.73769 8.5213 3.60938 8.5441Z" fill="#FCD1B3"/>
<path d="M11.7878 4.84571H11.6259C11.2345 4.84571 10.8778 4.99358 10.6083 5.2364C10.9082 5.50994 11.0963 5.90391 11.0963 6.34185V13.6418C11.0963 14.6626 10.4807 15.5825 9.53709 15.9717L9.53157 15.9739C8.82741 16.2644 8.09422 16.4567 7.35156 16.5521C8.82036 16.7407 10.3263 16.5483 11.7191 15.9739L11.7246 15.9717C12.6682 15.5825 13.2838 14.6626 13.2838 13.6418V6.34185C13.2838 5.51558 12.614 4.84571 11.7878 4.84571Z" fill="#FCC29A"/>
<path d="M18.2888 27.5898L20.0155 23.2035C20.1439 22.8775 20.4586 22.6632 20.809 22.6632H24.5015C25.8109 22.6632 26.9641 21.8008 27.3343 20.5448L27.5638 19.766C27.6824 19.3636 27.3808 18.9602 26.9612 18.9602H25.2285C24.9589 18.9602 24.7052 18.8327 24.5443 18.6163L23.15 16.741C22.6602 16.0822 21.8876 15.6938 21.0666 15.6938L18.1806 16.2969L9.53857 27.5898H18.2888Z" fill="#FCD1B3"/>
<path d="M26.9617 18.9602H25.6079C25.6079 18.9602 25.4954 19.3636 25.3768 19.766L25.1473 20.5448C24.7771 21.8008 23.6239 22.6631 22.3145 22.6631H24.502C25.8114 22.6631 26.9646 21.8008 27.3348 20.5448L27.5643 19.766C27.6829 19.3636 27.3812 18.9602 26.9617 18.9602Z" fill="#FCC29A"/>
<path d="M17.8283 23.2035L16.1016 27.5899H18.2891L20.0158 23.2035C20.1441 22.8775 20.4588 22.6632 20.8092 22.6632H18.6217C18.2713 22.6632 17.9566 22.8775 17.8283 23.2035Z" fill="#FCC29A"/>
<path d="M16.6253 16.5208L18.3401 19.7763C18.6361 20.3383 19.4599 20.2768 19.6692 19.6771L21.0095 15.8366C21.194 15.308 20.7366 14.7781 20.1867 14.8834L17.1316 15.4683C16.6522 15.5602 16.3978 16.089 16.6253 16.5208Z" fill="#B55C22"/>
<path d="M27.5642 19.766C27.6828 19.3636 27.3811 18.9602 26.9616 18.9602H26.0059C26.0059 19.6383 26.443 20.6499 27.2095 20.7651L27.26 20.7652C27.2875 20.6931 27.3126 20.6197 27.3347 20.5448L27.5642 19.766Z" fill="#B55C22"/>
<path d="M16.6253 16.5208L18.3401 19.7763C18.6361 20.3383 19.4599 20.2768 19.6692 19.6771L21.0095 15.8366C21.194 15.308 20.7366 14.7781 20.1867 14.8834L17.1316 15.4683C16.6522 15.5602 16.3978 16.089 16.6253 16.5208Z" stroke="black" stroke-width="0.742187" stroke-miterlimit="10" stroke-linecap="round" stroke-linejoin="round"/>
<path d="M18.7961 26.3017L18.2891 27.5898" stroke="black" stroke-width="0.742187" stroke-miterlimit="10" stroke-linecap="round" stroke-linejoin="round"/>
<path d="M21.0671 15.6938C21.8881 15.6938 22.6607 16.0822 23.1505 16.741L24.5448 18.6163C24.7057 18.8327 24.9594 18.9603 25.229 18.9603H26.9618C27.3813 18.9603 27.6829 19.3636 27.5643 19.766L27.3348 20.5448C26.9646 21.8008 25.8115 22.6631 24.502 22.6631H20.8095C20.4591 22.6631 20.1444 22.8775 20.0161 23.2035L19.5024 24.5083" stroke="black" stroke-width="0.742187" stroke-miterlimit="10" stroke-linecap="round" stroke-linejoin="round"/>
<path d="M26.0059 18.9602C26.0059 19.6383 26.443 20.6499 27.2095 20.7651" stroke="black" stroke-width="0.742187" stroke-miterlimit="10" stroke-linecap="round" stroke-linejoin="round"/>
<path d="M17.1858 17.634L9.53857 27.5898" stroke="black" stroke-width="0.742187" stroke-miterlimit="10" stroke-linecap="round" stroke-linejoin="round"/>
<path d="M3.57324 8.5441V13.6428C3.57324 14.663 4.18831 15.5827 5.13123 15.9721C7.2291 16.8387 9.58466 16.8393 11.683 15.9739L11.6884 15.9716C12.6321 15.5825 13.2477 14.6625 13.2477 13.6418V6.34184C13.2477 5.51556 12.5779 4.8457 11.7516 4.8457H11.5897C11.1697 4.8457 10.7894 5.01594 10.5141 5.29124C9.52789 6.27747 8.40187 7.11309 7.12897 7.68305L6.84377 7.81074C5.81373 8.27192 4.70155 8.5213 3.57324 8.5441Z" stroke="black" stroke-width="0.742187" stroke-miterlimit="10" stroke-linecap="round" stroke-linejoin="round"/>
<path d="M3.5732 11.2421H2.76929C2.32529 11.2421 1.96533 10.8821 1.96533 10.4381C1.96533 9.9941 2.32529 9.6342 2.76929 9.6342H3.5732V11.2421Z" stroke="black" stroke-width="0.742187" stroke-miterlimit="10" stroke-linecap="round" stroke-linejoin="round"/>
<path d="M13.2476 9.6342H14.0515C14.4955 9.6342 14.8554 9.99415 14.8554 10.4381V10.4382C14.8554 10.8822 14.4955 11.2421 14.0515 11.2421H13.2476V9.6342Z" stroke="black" stroke-width="0.742187" stroke-miterlimit="10" stroke-linecap="round" stroke-linejoin="round"/>
<path d="M4.64648 1.77376C5.67855 0.92189 7.00171 0.410125 8.44448 0.410125C11.7417 0.410125 14.4147 3.08309 14.4147 6.38041V9.63416" stroke="black" stroke-width="0.742187" stroke-miterlimit="10" stroke-linecap="round" stroke-linejoin="round"/>
<path d="M2.47412 9.69037V6.38052C2.47412 5.16706 2.8361 4.03814 3.458 3.09593" stroke="black" stroke-width="0.742187" stroke-miterlimit="10" stroke-linecap="round" stroke-linejoin="round"/>
<path d="M7.16182 16.5493V17.3881C7.16182 18.2011 6.70945 18.9466 5.98828 19.322L3.9124 20.4025C1.76023 21.5227 0.410156 23.7474 0.410156 26.1738V27.5897" stroke="black" stroke-width="0.742187" stroke-miterlimit="10" stroke-linecap="round" stroke-linejoin="round"/>
<path d="M9.87891 16.5494V17.3882C9.87891 18.2013 10.3313 18.9467 11.0524 19.3221L13.1283 20.4026C13.5969 20.6465 13.8699 20.8091 14.2568 21.1484" stroke="black" stroke-width="0.742187" stroke-miterlimit="10" stroke-linecap="round" stroke-linejoin="round"/>
<path d="M5.63965 19.5037L8.65802 22.5222L11.5773 19.6028" stroke="black" stroke-width="0.742187" stroke-miterlimit="10" stroke-linecap="round" stroke-linejoin="round"/>
<path d="M5.48486 24.8347V27.5898" stroke="black" stroke-width="0.742187" stroke-miterlimit="10" stroke-linecap="round" stroke-linejoin="round"/>
<path d="M6.86258 26.2123H4.10742" stroke="black" stroke-width="0.742187" stroke-miterlimit="10" stroke-linecap="round" stroke-linejoin="round"/>
</g>
</g>
<defs>
<clipPath id="clip0_11_856">
<rect width="28" height="28" fill="white"/>
</clipPath>
</defs>
</svg>
