<svg width="88" height="107" viewBox="0 0 88 107" fill="none" xmlns="http://www.w3.org/2000/svg">
<circle cx="43.9877" cy="43.9877" r="41.7986" fill="#FFA907" stroke="white" stroke-width="4.37837"/>
<g clip-path="url(#clip0_11_1461)">
<mask id="mask0_11_1461" style="mask-type:luminance" maskUnits="userSpaceOnUse" x="24" y="21" width="47" height="47">
<path d="M24.0034 21.0035H70.2178V67.2179H24.0034V21.0035Z" fill="white"/>
</mask>
<g mask="url(#mask0_11_1461)">
<path d="M24.7402 66.5409V64.2038C24.7402 60.1992 26.9685 56.5272 30.5208 54.6783L33.947 52.8949C35.1374 52.2753 35.8839 51.0449 35.8839 49.703V46.5133H40.3688V49.703C40.3688 51.0449 41.1155 52.2753 42.3057 52.8949L45.732 54.6783C46.5054 55.0808 46.9561 55.3493 47.5946 55.9092L49.6075 57.3191L43.5299 66.5409H24.7402Z" fill="#FCD1B3"/>
<path d="M47.5942 55.9093C46.9556 55.3493 46.505 55.0809 45.7316 54.6783L42.3053 52.8949C41.115 52.2754 40.3684 51.045 40.3684 49.7031V46.5134H36.7579V49.7031C36.7579 51.045 37.5045 52.2754 38.6948 52.8949L42.1211 54.6783C42.8945 55.0809 43.3451 55.3493 43.9837 55.9093L45.9966 57.3192L39.9189 66.541H43.5294L49.6071 57.3192L47.5942 55.9093Z" fill="#FCC29A"/>
<path d="M47.8474 56.033C47.2089 55.473 46.5054 55.0809 45.732 54.6783L43.1797 53.3497L38.3528 58.1767L33.3709 53.1948L30.5208 54.6783C26.9685 56.5273 24.7402 60.1993 24.7402 64.204V66.541H39.9494L49.6075 57.3192L47.8474 56.033Z" fill="#1CCA96"/>
<path d="M47.3503 57.951L43.1951 63.4413L49.6069 57.3191L47.8468 56.0329C47.2083 55.4729 46.5048 55.0808 45.7314 54.6782L43.179 53.3497L41.9431 54.5857C41.9431 54.5857 45.928 56.5272 47.3503 57.951Z" fill="#19B586"/>
<path d="M28.1467 37.9003V31.5347C28.1467 26.0924 32.5583 21.6806 38.0005 21.6806C43.4426 21.6806 47.8543 26.0924 47.8543 31.5347V37.8076L28.1467 37.9003Z" fill="#B55C22"/>
<path d="M38.0005 21.6805C37.5411 21.6805 37.0892 21.7127 36.6466 21.7735C41.4479 22.4334 44.2438 26.5517 44.2438 31.5346V37.8075L28.1467 37.8874V37.9001L47.8543 37.8075V31.5346C47.8543 26.0923 43.4426 21.6805 38.0005 21.6805Z" fill="#A84C0F"/>
<path d="M31.7658 39.5587H28.6337C27.9008 39.5587 27.3068 38.9646 27.3068 38.2318C27.3068 37.4989 27.9008 36.9049 28.6337 36.9049H31.7658V39.5587Z" fill="#FCC29A"/>
<path d="M44.1231 36.9049H47.2552C47.9881 36.9049 48.5822 37.499 48.5822 38.2318V38.2319C48.5822 38.9647 47.9881 39.5587 47.2552 39.5587H44.1231V36.9049Z" fill="#FCC29A"/>
<path d="M29.9607 35.1057V43.5211C29.9607 45.2051 30.976 46.7229 32.5323 47.3658C35.9948 48.796 39.8827 48.7971 43.3459 47.3687L43.355 47.365C44.9124 46.7227 45.9286 45.2043 45.9286 43.5195V31.4708C45.9286 30.1071 44.8231 29.0014 43.4593 29.0014H43.192C42.4988 29.0014 41.8711 29.2824 41.4168 29.7368C39.789 31.3646 37.9305 32.7438 35.8295 33.6845L35.3588 33.8953C33.6588 34.6565 31.823 35.0681 29.9607 35.1057Z" fill="#FCD1B3"/>
<path d="M43.4593 29.0015H43.1922C42.5462 29.0015 41.9575 29.2455 41.5126 29.6463C42.0075 30.0978 42.3181 30.748 42.3181 31.4709V43.5195C42.3181 45.2043 41.302 46.7227 39.7446 47.365L39.7355 47.3687C38.5732 47.8481 37.3631 48.1656 36.1373 48.323C38.5616 48.6343 41.0472 48.3168 43.346 47.3687L43.3551 47.365C44.9125 46.7227 45.9286 45.2043 45.9286 43.5195V31.4709C45.9286 30.1071 44.8231 29.0015 43.4593 29.0015Z" fill="#FCC29A"/>
<path d="M54.1893 66.5409L57.0392 59.3012C57.2511 58.7631 57.7704 58.4094 58.3488 58.4094H64.4433C66.6046 58.4094 68.5079 56.9861 69.1189 54.913L69.4977 53.6276C69.6935 52.9634 69.1956 52.2976 68.5032 52.2976H65.6433C65.1983 52.2976 64.7795 52.0871 64.5139 51.73L62.2127 48.6348C61.4042 47.5474 60.129 46.9064 58.774 46.9064L54.0107 47.9017L39.7468 66.5409H54.1893Z" fill="#FCD1B3"/>
<path d="M68.5043 52.2976H66.2698C66.2698 52.2976 66.0841 52.9634 65.8883 53.6275L65.5095 54.9129C64.8985 56.9861 62.9952 58.4093 60.8339 58.4093H64.4444C66.6057 58.4093 68.509 56.9861 69.12 54.9129L69.4988 53.6275C69.6946 52.9634 69.1967 52.2976 68.5043 52.2976Z" fill="#FCC29A"/>
<path d="M53.4293 59.3013L50.5793 66.541H54.1898L57.0398 59.3013C57.2516 58.7632 57.771 58.4095 58.3493 58.4095H54.7388C54.1605 58.4095 53.6411 58.7632 53.4293 59.3013Z" fill="#FCC29A"/>
<path d="M51.4434 48.2713L54.2737 53.6446C54.7624 54.5722 56.122 54.4706 56.4674 53.4808L58.6796 47.1421C58.9841 46.2696 58.2292 45.3949 57.3216 45.5688L52.2791 46.5342C51.4879 46.6858 51.068 47.5586 51.4434 48.2713Z" fill="#B55C22"/>
<path d="M69.4987 53.6276C69.6944 52.9634 69.1965 52.2977 68.5041 52.2977H66.9266C66.9266 53.4168 67.6482 55.0865 68.9132 55.2767L68.9966 55.2768C69.042 55.1578 69.0834 55.0366 69.1198 54.9129L69.4987 53.6276Z" fill="#B55C22"/>
<path d="M51.4434 48.2713L54.2737 53.6446C54.7624 54.5722 56.122 54.4706 56.4674 53.4808L58.6796 47.1421C58.9841 46.2696 58.2292 45.3949 57.3216 45.5688L52.2791 46.5342C51.4879 46.6858 51.068 47.5586 51.4434 48.2713Z" stroke="black" stroke-width="1.21931" stroke-miterlimit="10" stroke-linecap="round" stroke-linejoin="round"/>
<path d="M55.0267 64.4148L54.1898 66.5409" stroke="black" stroke-width="1.21931" stroke-miterlimit="10" stroke-linecap="round" stroke-linejoin="round"/>
<path d="M58.7748 46.9064C60.1298 46.9064 61.405 47.5473 62.2135 48.6347L64.5147 51.73C64.7803 52.0871 65.1991 52.2977 65.6441 52.2977H68.504C69.1964 52.2977 69.6943 52.9633 69.4985 53.6276L69.1196 54.9129C68.5087 56.9861 66.6054 58.4093 64.4441 58.4093H58.3495C57.7712 58.4093 57.2519 58.7631 57.04 59.3012L56.1923 61.4548" stroke="black" stroke-width="1.21931" stroke-miterlimit="10" stroke-linecap="round" stroke-linejoin="round"/>
<path d="M66.9266 52.2976C66.9266 53.4168 67.6482 55.0865 68.9132 55.2766" stroke="black" stroke-width="1.21931" stroke-miterlimit="10" stroke-linecap="round" stroke-linejoin="round"/>
<path d="M52.3687 50.1087L39.7468 66.5409" stroke="black" stroke-width="1.21931" stroke-miterlimit="10" stroke-linecap="round" stroke-linejoin="round"/>
<path d="M29.9009 35.1057V43.5211C29.9009 45.2051 30.9161 46.7229 32.4724 47.3658C35.9349 48.796 39.8228 48.7971 43.2861 47.3687L43.2951 47.365C44.8526 46.7227 45.8688 45.2043 45.8688 43.5195V31.4708C45.8688 30.1071 44.7632 29.0014 43.3995 29.0014H43.1322C42.4389 29.0014 41.8112 29.2824 41.3569 29.7368C39.7291 31.3646 37.8706 32.7438 35.7697 33.6845L35.2989 33.8953C33.5989 34.6565 31.7632 35.0681 29.9009 35.1057Z" stroke="black" stroke-width="1.21931" stroke-miterlimit="10" stroke-linecap="round" stroke-linejoin="round"/>
<path d="M29.9013 39.5587H28.5744C27.8416 39.5587 27.2475 38.9646 27.2475 38.2318C27.2475 37.4989 27.8416 36.9049 28.5744 36.9049H29.9013V39.5587Z" stroke="black" stroke-width="1.21931" stroke-miterlimit="10" stroke-linecap="round" stroke-linejoin="round"/>
<path d="M45.8685 36.9049H47.1954C47.9282 36.9049 48.5223 37.499 48.5223 38.2318V38.2319C48.5223 38.9647 47.9282 39.5587 47.1954 39.5587H45.8685V36.9049Z" stroke="black" stroke-width="1.21931" stroke-miterlimit="10" stroke-linecap="round" stroke-linejoin="round"/>
<path d="M31.6723 23.9311C33.3757 22.5251 35.5596 21.6804 37.9409 21.6804C43.383 21.6804 47.7948 26.0922 47.7948 31.5345V36.9048" stroke="black" stroke-width="1.21931" stroke-miterlimit="10" stroke-linecap="round" stroke-linejoin="round"/>
<path d="M28.0868 36.9976V31.5347C28.0868 29.5319 28.6843 27.6686 29.7107 26.1134" stroke="black" stroke-width="1.21931" stroke-miterlimit="10" stroke-linecap="round" stroke-linejoin="round"/>
<path d="M35.8241 48.3185V49.703C35.8241 51.0449 35.0774 52.2753 33.8872 52.8948L30.4609 54.6782C26.9087 56.5272 24.6804 60.1991 24.6804 64.2038V66.5409" stroke="black" stroke-width="1.21931" stroke-miterlimit="10" stroke-linecap="round" stroke-linejoin="round"/>
<path d="M40.3085 48.3186V49.703C40.3085 51.045 41.0552 52.2753 42.2455 52.8949L45.6717 54.6783C46.4451 55.0808 46.8958 55.3493 47.5343 55.9092" stroke="black" stroke-width="1.21931" stroke-miterlimit="10" stroke-linecap="round" stroke-linejoin="round"/>
<path d="M33.3117 53.1947L38.2936 58.1766L43.1119 53.3582" stroke="black" stroke-width="1.21931" stroke-miterlimit="10" stroke-linecap="round" stroke-linejoin="round"/>
<path d="M33.0561 61.9935V66.5409" stroke="black" stroke-width="1.21931" stroke-miterlimit="10" stroke-linecap="round" stroke-linejoin="round"/>
<path d="M35.3303 64.2673H30.7829" stroke="black" stroke-width="1.21931" stroke-miterlimit="10" stroke-linecap="round" stroke-linejoin="round"/>
</g>
</g>
<path d="M44.8769 106.547C44.4377 107.151 43.5373 107.151 43.0982 106.547L26.3924 83.5767L61.5826 83.5767L44.8769 106.547Z" fill="white"/>
<defs>
<clipPath id="clip0_11_1461">
<rect width="46" height="46" fill="white" transform="translate(24.0034 21.0035) scale(1.00466)"/>
</clipPath>
</defs>
</svg>
