<svg width="25" height="25" viewBox="0 0 25 25" fill="none" xmlns="http://www.w3.org/2000/svg">
<path d="M10.9271 0.552987C11.7893 -0.184329 13.2013 -0.184329 14.076 0.552987L16.0502 2.25256C16.4251 2.57748 17.1248 2.83991 17.6246 2.83991H19.7488C21.0733 2.83991 22.1604 3.92714 22.1604 5.25181V7.37628C22.1604 7.86366 22.4228 8.57598 22.7477 8.95088L24.4471 10.9254C25.1843 11.7877 25.1843 13.1998 24.4471 14.0746L22.7477 16.0491C22.4228 16.424 22.1604 17.1238 22.1604 17.6237V19.7482C22.1604 21.0728 21.0733 22.1601 19.7488 22.1601H17.6246C17.1373 22.1601 16.4251 22.4225 16.0502 22.7474L14.076 24.447C13.2138 25.1843 11.8018 25.1843 10.9271 24.447L8.95289 22.7474C8.57803 22.4225 7.87829 22.1601 7.37848 22.1601H5.21679C3.89229 22.1601 2.8052 21.0728 2.8052 19.7482V17.6112C2.8052 17.1238 2.5428 16.424 2.23041 16.0491L0.543546 14.0621C-0.181182 13.1998 -0.181182 11.8002 0.543546 10.9379L2.23041 8.95088C2.5428 8.57598 2.8052 7.87615 2.8052 7.38877V5.23931C2.8052 3.91464 3.89229 2.82742 5.21679 2.82742H7.37848C7.8658 2.82742 8.57803 2.56498 8.95289 2.24006L10.9271 0.552987Z" fill="#55D519"/>
<path d="M11.6326 15.9661C11.4243 15.9661 11.2264 15.8828 11.0806 15.737L8.55973 13.2161C8.25764 12.9141 8.25764 12.4141 8.55973 12.112C8.86181 11.8099 9.36181 11.8099 9.66389 12.112L11.6326 14.0807L16.1118 9.60156C16.4139 9.29948 16.9139 9.29948 17.216 9.60156C17.5181 9.90365 17.5181 10.4036 17.216 10.7057L12.1847 15.737C12.0389 15.8828 11.841 15.9661 11.6326 15.9661Z" fill="white"/>
</svg>
